<svg xmlns="http://www.w3.org/2000/svg" width="40" height="30" viewBox="0 0 40 30"><defs><style>.a{fill:#fff;}.b{fill:#004c94;}</style></defs><g transform="translate(8 5)"><rect class="a" width="40" height="30" rx="4" transform="translate(-8 -5)"/><g transform="translate(1.095 0.879)"><path class="a" d="M0,8.733a8.7,8.7,0,1,1,8.7,8.733A8.715,8.715,0,0,1,0,8.733Z" transform="translate(0.428 0.508)"/><path class="b" d="M9.056,18.09a9.031,9.031,0,0,1-6.391-2.642A8.856,8.856,0,0,1,0,9.123,9.1,9.1,0,0,1,2.664,2.545,9.053,9.053,0,0,1,9.053,0h2.376A9.794,9.794,0,0,1,18,2.54a8.848,8.848,0,0,1,2.874,6.584,8.638,8.638,0,0,1-2.867,6.337,9.77,9.77,0,0,1-6.576,2.63H9.056ZM9.113.723a8.284,8.284,0,1,0,8.256,8.284A8.25,8.25,0,0,0,9.113.723ZM7.243,13.91h0a5.253,5.253,0,0,1,0-9.807v9.806Zm3.739,0h0V4.1A5.279,5.279,0,0,1,13.4,6a5.253,5.253,0,0,1-2.42,7.911Z" transform="translate(0.058 0.059)"/></g></g></svg>