<svg xmlns="http://www.w3.org/2000/svg" width="40" height="30" viewBox="0 0 40 30"><defs><style>.a{fill:#fff;}.b{fill:#00579f;}.c{fill:#faa61a;}</style></defs><g transform="translate(5 10)"><rect class="a" width="40" height="30" rx="4" transform="translate(-5 -10)"/><path class="b" d="M2.413,9.523H0L1.51,0H3.923Z" transform="translate(10.556 0.294)"/><path class="b" d="M7.24.405A5.844,5.844,0,0,0,5.075,0C2.692,0,1.013,1.3,1,3.151.983,4.518,2.2,5.278,3.118,5.734c.934.466,1.251.77,1.251,1.186-.01.638-.755.932-1.449.932A4.724,4.724,0,0,1,.656,7.345L.338,7.193,0,9.331a7.218,7.218,0,0,0,2.692.507c2.532,0,4.181-1.277,4.2-3.252C6.9,5.5,6.257,4.671,4.866,3.992c-.844-.436-1.361-.73-1.361-1.175C3.515,2.411,3.942,2,4.9,2a4.031,4.031,0,0,1,1.8.365l.218.1L7.24.405Z" transform="translate(14.479 0.122)"/><path class="b" d="M2.532,9.524H0L3.585.79A1.182,1.182,0,0,1,4.846,0H6.713L8.66,9.522H6.425c0-.008-.216-1.084-.288-1.428h-3.1L2.533,9.523ZM5.016,2.577c-.075.219-.181.518-.252.717-.057.161-.067.188-.067.192-.008.021-.767,2.125-.963,2.664H5.74c-.1-.472-.552-2.734-.556-2.756Z" transform="translate(21.192 0.294)"/><path class="b" d="M5.959,0,3.6,6.494,3.337,5.177A7.252,7.252,0,0,0,0,1.185L2.165,9.513H4.717L8.511,0H5.959Z" transform="translate(2.582 0.294)"/><path class="c" d="M3.923,0H.04L0,.192A8.123,8.123,0,0,1,5.859,5.177L5.015.8A1,1,0,0,0,3.923,0Z" transform="translate(0.06 0.294)"/></g></svg>