<svg xmlns="http://www.w3.org/2000/svg" width="40" height="30" viewBox="0 0 40 30"><defs><style>.a{fill:#fff;}.b{fill:#b3131b;}</style></defs><g transform="translate(5 8)"><rect class="a" width="40" height="30" rx="4" transform="translate(-5 -8)"/><path class="b" d="M0,12.985H0v-.029c0-.016.02-.125.044-.238l0-.012c.025-.118.061-.289.082-.392s.059-.291.084-.407l.041-.2,0-.008,0-.008L.3,11.477c.013-.062.029-.143.045-.222v-.006c.015-.072.029-.142.04-.194.022-.112.06-.3.084-.407L.5,10.488c.019-.093.04-.195.056-.271l.021-.1L.645,9.8c.022-.108.057-.274.077-.37S.77,9.2.781,9.139.828,8.9.86,8.747l0-.016c.035-.163.072-.345.084-.407S1,8.081,1.03,7.918c.029-.139.061-.294.077-.374l.007-.033c.011-.056.047-.24.084-.407s.071-.342.082-.4l0-.02c.014-.068.04-.2.064-.312s.074-.358.108-.52.092-.444.129-.626.081-.4.1-.483l.019-.09.05-.241L1.773,4.3c.019-.095.043-.207.06-.291l.038-.184.053-.253.039-.194V3.37l.043-.21c.02-.1.055-.268.079-.38l0-.019c.024-.112.065-.309.091-.437s.071-.329.1-.437.067-.248.086-.3a2.632,2.632,0,0,1,.122-.26l.086-.162.078-.1C2.7,1,2.778.912,2.825.863s.141-.134.192-.176.13-.1.175-.131.124-.08.182-.112S3.515.369,3.555.35,3.682.3,3.744.271s.177-.063.265-.089S4.248.118,4.358.1s.284-.05.379-.063L4.919.01,17.452,0,29.984,0V.03c0,.017-.019.121-.044.238L29.848.7c-.023.117-.058.281-.078.379l0,.021-.022.107-.063.3c-.026.129-.067.325-.09.437s-.061.3-.084.407-.06.3-.084.408-.06.288-.081.391-.059.291-.085.415l-.049.237,0,.008L29.167,4c-.019.085-.043.205-.064.3l-.02.1c-.012.06-.03.149-.048.237L29,4.819c-.022.108-.056.272-.081.39l-.01.048c-.024.116-.061.293-.081.392-.017.082-.046.225-.071.345l-.014.069-.03.144v.007c-.02.1-.041.2-.054.263l-.082.392c-.024.116-.066.316-.092.445l-.063.3-.022.107c-.02.1-.057.275-.082.4s-.067.321-.09.437l-.053.255-.031.151-.043.21v.011l-.039.193-.045.219-.045.219c-.024.121-.061.3-.082.4s-.059.283-.084.407-.068.329-.092.436l-.046.209-.054.145c-.03.08-.075.186-.1.236s-.076.137-.113.2-.088.13-.116.164-.1.113-.176.186l-.128.128-.122.087c-.069.048-.141.1-.162.108l-.182.092c-.078.04-.189.089-.246.111s-.168.058-.249.082-.168.046-.193.051l-.193.04c-.08.017-.244.042-.365.057l-.216.025-12.525,0ZM8.554,5.218l-.049.305c-.027.168-.069.428-.094.577s-.063.373-.084.5-.059.346-.084.49-.065.37-.091.513l-.027.148-.055.3c-.014.074-.036.194-.057.307L7.988,8.5l-.032.171c-.022.116-.045.241-.061.327-.021.11-.053.274-.077.4l-.014.07-.022.107c-.016.078-.028.14-.031.153l-.009.034H8.4L8.4,9.733a.221.221,0,0,0,.009-.068c0-.025.011-.115.024-.2.009-.062.029-.183.048-.3l.021-.129.026-.166c.02-.125.041-.259.055-.347.021-.131.046-.3.056-.365a.588.588,0,0,1,.027-.132.257.257,0,0,1,.047.071l.038.071.085.085.084.084.1.041.1.041.123.016.123.015.157-.009.156-.01.17-.043.169-.044.091-.041a1.8,1.8,0,0,0,.2-.11l.106-.068.1-.1a2.134,2.134,0,0,0,.17-.193.9.9,0,0,0,.072-.1.41.41,0,0,1,.043-.072,1.647,1.647,0,0,0,.107-.213c.034-.078.089-.227.123-.332L11.1,6.93l.031-.157c.018-.089.039-.231.048-.317l.018-.16-.011-.136-.01-.135-.031-.136-.031-.136-.051-.1-.051-.1-.1-.1-.1-.1-.117-.059-.117-.06-.129-.031-.129-.031-.129-.009-.129-.009-.144.016-.143.016-.117.03-.118.03-.1.047a1.982,1.982,0,0,0-.181.1,1.091,1.091,0,0,0-.1.071.43.43,0,0,1-.06.047l-.04.025.028-.132c.016-.076.028-.141.028-.151V5.218H8.554Zm17.254-.077h0l-.167.015-.167.016-.152.038-.151.038-.144.07-.144.07-.106.077-.106.078-.092.1a2.262,2.262,0,0,0-.162.2l-.07.1-.082.171c-.047.1-.1.221-.123.276s-.06.185-.086.286l-.046.18-.023.234-.022.235.017.188L24,7.7l.021.068c.01.037.033.1.052.148l.031.08.059.078.059.079.067.054.067.054.091.045a1.238,1.238,0,0,0,.186.071,1.831,1.831,0,0,0,.19.039c.052.006.161.013.238.014l.144,0,.137-.022c.075-.013.17-.032.212-.044a1.078,1.078,0,0,0,.167-.068l.091-.046.078-.068.078-.069L26.048,8a1.263,1.263,0,0,0,.091-.132l.009-.023-.008.076c0,.04-.013.108-.021.151s-.018.118-.023.176l-.01.1h.595v-.2l.045-.384c.025-.212.062-.492.082-.626s.052-.325.069-.423l.029-.165,0-.009c.014-.078.028-.16.04-.226.021-.12.058-.33.083-.467l.033-.179c.02-.109.041-.223.056-.3s.038-.205.058-.309l.025-.136c.022-.116.06-.319.086-.452s.066-.334.083-.415.037-.179.037-.184V3.861h-.649l-.01.095c0,.054-.032.237-.055.381s-.066.409-.091.558c-.019.112-.037.221-.046.28l-.007.041-.008.05-.026-.011c-.014-.006-.091-.027-.169-.047L26.2,5.172l-.2-.015-.2-.015Zm-7.64,0h0l-.2.015-.205.016-.151.032-.152.031-.1.039a1.372,1.372,0,0,0-.175.086c-.044.026-.1.061-.121.076s-.093.08-.158.144l-.116.113-.065.094a2.449,2.449,0,0,0-.138.241l-.072.146-.055.158c-.03.086-.073.228-.094.317l-.04.158-.014.143L16.3,7.1v.377l.014.11.014.11.045.113.046.113L16.469,8l.052.082.084.082.084.081.088.047.088.046.115.032a2.031,2.031,0,0,0,.205.045,2.471,2.471,0,0,0,.256.014l.167,0,.189-.022c.1-.012.242-.033.309-.046s.17-.037.235-.055a.9.9,0,0,0,.129-.043.8.8,0,0,0,.04-.152c.015-.076.035-.182.043-.232a.362.362,0,0,0,.009-.1h0a.037.037,0,0,0-.024.009,1.455,1.455,0,0,1-.166.069l-.146.054-.208.04L17.809,8l-.176-.006-.177-.005-.1-.035-.1-.034-.077-.068L17.1,7.78l-.051-.094L17,7.593l-.025-.124-.024-.125V7.021l.03-.2.031-.2.031-.105,0-.01c.017-.056.034-.117.04-.141a1.4,1.4,0,0,1,.062-.158A2.354,2.354,0,0,1,17.253,6l.059-.1.072-.075.072-.074.076-.047.076-.048.1-.03a1.775,1.775,0,0,1,.212-.048l.113-.018.167.009.167.008.2.039.2.04.08.03c.073.027.083.03.085.03a1.2,1.2,0,0,0,.023-.124c.011-.069.03-.181.041-.25a.638.638,0,0,0,.016-.132.777.777,0,0,0-.131-.021c-.072-.008-.265-.022-.415-.031l-.291-.016Zm-4.942,0h0l-.151.009-.152.01-.182.035-.182.035-.113.045a1.926,1.926,0,0,0-.212.1,1.5,1.5,0,0,0-.167.111c-.038.03-.1.09-.144.13a1.379,1.379,0,0,0-.138.167c-.034.051-.086.139-.115.2s-.068.137-.085.181-.051.131-.071.189-.054.177-.075.264-.047.222-.059.3l-.024.153v.449l.023.1a1.8,1.8,0,0,0,.054.182,1.221,1.221,0,0,0,.069.15.832.832,0,0,0,.1.134,1.271,1.271,0,0,0,.138.122,1.158,1.158,0,0,0,.166.1L12,8.34l.124.03c.064.015.167.036.229.043s.184.014.272.015l.167,0,.167-.014c.086-.008.238-.026.333-.039s.248-.042.353-.064l.184-.041.01-.068c0-.037.025-.148.046-.247l.037-.179-.008-.008L13.9,7.762l-.057.027a2.134,2.134,0,0,1-.216.079l-.158.052-.167.032-.167.032H12.6l-.091-.029a1.477,1.477,0,0,1-.163-.065l-.073-.036L12.218,7.8l-.06-.054-.047-.081-.047-.082-.029-.1-.03-.1V7.006l.025-.168.026-.168.229-.011.228-.011.843.005.843.005.026-.107c.013-.058.035-.178.047-.272l.023-.164V5.84l-.024-.1-.023-.1-.04-.068a1.088,1.088,0,0,0-.086-.121.643.643,0,0,0-.1-.091c-.028-.02-.086-.055-.13-.078l-.076-.04L13.685,5.2l-.132-.032-.164-.015-.163-.015Zm7.489.421h0l.131.022.132.023.087.043.088.043.05.073.049.073v.23l-.026.126-.026.127-.545,0-.545,0-.178.049a1.985,1.985,0,0,0-.242.079.342.342,0,0,1-.077.031,1.009,1.009,0,0,0-.13.071l-.115.072-.092.09a1.506,1.506,0,0,0-.142.166,1.437,1.437,0,0,0-.1.193l-.05.117-.023.131-.022.132v.276l.022.114.023.115.04.076a1.075,1.075,0,0,0,.093.134l.05.059.091.055.091.055.1.029c.054.015.141.035.194.043l.089.014.2-.006.205-.005.129-.033.129-.032.084-.04a1.563,1.563,0,0,0,.167-.094,1.245,1.245,0,0,0,.157-.129,1.646,1.646,0,0,0,.135-.153A.415.415,0,0,1,21,7.861a1.092,1.092,0,0,1-.017.155,2.235,2.235,0,0,0-.022.245v.095h.556l.008-.215.009-.215.04-.279c.022-.156.057-.383.078-.5s.05-.287.073-.419l.009-.049.021-.117V6.549c.021-.116.045-.248.062-.335l.04-.219,0-.189V5.617l-.043-.087-.042-.087-.059-.055-.058-.056-.1-.049-.1-.048L21.331,5.2l-.143-.032-.2-.015-.2-.014-.252.015c-.138.008-.333.025-.435.038l-.182.022h-.248L19.66,5.3c-.01.05-.037.163-.061.252a1.406,1.406,0,0,0-.038.17,1.193,1.193,0,0,0,.147-.033c.075-.02.241-.055.37-.076l.228-.039.2-.008Zm1.9-.344v.01c0,.006-.015.107-.031.215s-.051.33-.076.484c-.015.094-.036.223-.056.344v.005l-.033.2c-.025.145-.062.359-.084.475l-.027.143c-.019.1-.04.211-.056.295-.024.129-.065.336-.09.46-.015.078-.034.173-.05.251l-.023.115-.028.139h.662v-.2l.039-.25c.021-.138.056-.356.076-.483.015-.087.031-.19.044-.27l.015-.093c.011-.069.04-.222.066-.339s.057-.243.069-.279a.451.451,0,0,0,.024-.086.991.991,0,0,1,.062-.151l.063-.131.082-.109.083-.109.09-.067a1.268,1.268,0,0,1,.177-.109l.087-.042.189,0h.19l.075.024.075.023.013-.008.013-.007V5.62c0-.026.017-.124.036-.219l.036-.17-.041-.016c-.022-.008-.074-.026-.115-.039L24.1,5.153h-.273l-.112.039-.111.04-.084.049-.084.05-.109.112-.108.113-.059.088a.544.544,0,0,1-.063.083c0-.005.015-.1.038-.223s.044-.234.044-.253V5.218h-.561Zm-7.686,0v.037c0,.02-.017.14-.038.267l-.013.081v.006c-.02.124-.046.281-.062.386l-.016.1c-.021.13-.048.3-.067.411-.023.141-.061.355-.084.475s-.059.309-.084.437c-.021.109-.054.279-.079.406l-.012.061-.03.148-.038.189c-.011.056-.021.109-.021.117v.014h.647l.01-.137c0-.077.024-.231.04-.336l0-.031c.018-.116.049-.311.073-.455s.071-.41.105-.582c.031-.152.069-.323.082-.36a.393.393,0,0,0,.023-.085.793.793,0,0,1,.054-.138,1.892,1.892,0,0,1,.123-.219l.069-.1.093-.085.093-.086.113-.054.114-.054h.348l.086.025c.047.014.089.026.094.026s.009-.017.009-.036.017-.116.038-.22.038-.19.038-.2a.432.432,0,0,0-.11-.042,1.345,1.345,0,0,0-.185-.042l-.076-.01-.1.017A1.327,1.327,0,0,0,16,5.2a1.064,1.064,0,0,0-.163.082,1.174,1.174,0,0,0-.156.124,1.784,1.784,0,0,0-.152.178L15.5,5.62l-.075.1-.022.031.013-.06c.007-.032.027-.139.045-.241s.035-.193.04-.208l.008-.026h-.578Zm-6.956,0-.329,0-.33,0-.027.2c-.015.107-.048.32-.074.475l-.05.306-.035.214c-.02.125-.058.342-.083.475l-.031.163c-.019.1-.039.2-.052.275-.022.113-.059.309-.085.437s-.059.3-.076.377-.034.16-.039.177l-.009.034H7.41l.009-.024a.269.269,0,0,0,.009-.076c0-.029.021-.178.046-.334s.067-.408.092-.561.064-.378.084-.5.056-.313.082-.446l.036-.186V6.224c.017-.088.034-.175.045-.237.022-.113.063-.325.093-.473s.058-.276.062-.283Zm-4.214.943H5.743l.011.012.011.011-.017.087L5.685,6.6c-.024.133-.066.357-.092.5s-.064.341-.084.445-.054.288-.083.443l-.007.039c-.031.168-.054.3-.054.313v.019h.739l.017-.095c.009-.053.023-.146.031-.208s.03-.2.047-.293l.053-.307,0-.026.018-.1.051-.3V7.016l.039-.229c.025-.154.063-.377.084-.5s.057-.322.083-.453.065-.346.09-.482l.032-.172.053-.288c.021-.116.059-.327.086-.468s.059-.307.072-.365l.026-.109h-.75l-.01.071c-.005.038-.023.145-.041.245s-.046.266-.067.377-.057.326-.082.475l-.008.048c-.023.141-.05.309-.062.391l-.025.168-.55.011-.55.011-.46-.011c-.282-.007-.458-.012-.463-.013a1.037,1.037,0,0,1,.019-.131c.012-.071.035-.192.051-.271s.048-.24.068-.347.046-.25.054-.31.025-.152.038-.214.037-.19.053-.282.035-.183.04-.2l.01-.023H3.414l-.023.131c-.013.073-.031.176-.039.23s-.036.227-.062.384l-.059.369-.024.152-.043.27-.04.25c-.025.155-.066.4-.093.543s-.063.342-.083.446l-.037.2v.005l-.044.235-.017.085c-.024.123-.052.265-.069.344-.022.1-.043.217-.05.257s-.031.164-.052.266-.039.2-.039.214v.025h.736L3.4,8.193c.014-.089.042-.26.063-.381l.029-.176c.018-.109.038-.228.053-.322l.016-.1c.025-.144.053-.309.07-.408.021-.124.055-.318.075-.429a1.832,1.832,0,0,1,.046-.211l.008-.009ZM7.769,3.9l-.077.034-.077.035-.045.048-.045.048-.035.083-.036.084-.006.129-.007.13.033.064.033.064.063.029.064.029h.184L7.89,4.65l.073-.024.065-.066L8.093,4.5l.034-.087.034-.087V4.064l-.03-.05L8.1,3.964,8.05,3.932,8,3.9H7.769ZM9.346,8.022h0l-.083-.014L9.18,7.993,9.1,7.954l-.085-.038-.059-.056L8.895,7.8,8.86,7.729a1.145,1.145,0,0,1-.053-.157l-.019-.081.007-.13.008-.13.039-.2c.022-.113.061-.327.086-.468s.065-.364.086-.473l.04-.209.086-.072A1.469,1.469,0,0,1,9.31,5.69l.082-.046L9.5,5.611,9.6,5.578,9.74,5.57l.137-.008.111.023.111.024.079.035.078.036.066.066.066.066.035.07a1.025,1.025,0,0,1,.061.167l.025.1-.008.286-.007.286-.04.17c-.021.094-.063.238-.09.317l-.052.147-.063.12a2.046,2.046,0,0,1-.119.2.847.847,0,0,1-.109.122c-.03.026-.079.065-.109.087l-.056.04-.129.044L9.6,8.006l-.126.008ZM20,8.008h0l-.08-.021a.864.864,0,0,1-.149-.056L19.7,7.9l-.038-.044a.694.694,0,0,1-.069-.106l-.032-.062-.007-.145-.006-.145.026-.088a1.506,1.506,0,0,1,.074-.186l.048-.1.092-.091.092-.091.1-.046.1-.047.122-.029.122-.029h.758l.024.01.023.01-.02.118c-.011.061-.037.179-.059.262s-.06.2-.083.257-.045.118-.045.123a.824.824,0,0,1-.055.1l-.056.093-.091.089a.631.631,0,0,1-.1.09.3.3,0,0,0-.068.038l-.056.038-.123.039L20.246,8,20.124,8,20,8.008Zm5.2,0h0l-.076-.013a.814.814,0,0,1-.151-.045L24.9,7.916l-.062-.051-.062-.05-.047-.088-.046-.087-.021-.1-.022-.1,0-.2,0-.2.024-.174.024-.173.039-.121a1.218,1.218,0,0,0,.038-.14.71.71,0,0,1,.046-.121c.026-.057.067-.144.093-.193a1.81,1.81,0,0,1,.109-.173,1.413,1.413,0,0,1,.133-.15A1.02,1.02,0,0,1,25.29,5.7l.068-.041.12-.041.119-.041h.5l.144.04c.08.022.164.047.187.056l.042.017-.008.041c0,.022-.022.122-.04.222l-.024.135c-.017.093-.036.2-.052.287-.024.132-.062.333-.084.445s-.054.257-.069.317l-.05.183,0,.009a1.125,1.125,0,0,1-.064.166,1.194,1.194,0,0,1-.089.156.91.91,0,0,1-.1.115,1.421,1.421,0,0,1-.134.1l-.083.055-.121.039-.121.038L25.317,8ZM13.668,6.3h-.763c-.427,0-.754,0-.762-.007s.012-.039.039-.117a2.074,2.074,0,0,1,.085-.2l.045-.091.1-.1.1-.1.1-.047a1.164,1.164,0,0,1,.159-.063,1.726,1.726,0,0,1,.212-.025l.152-.009.116.014.117.015.085.039.085.038.046.05a.507.507,0,0,1,.068.089l.022.04.013.089.014.088-.016.147-.016.147Z" transform="translate(0.008 0.005)"/></g></svg>