<svg xmlns="http://www.w3.org/2000/svg" width="40" height="30" viewBox="0 0 40 30"><defs><style>.a{fill:#fff;}.b{fill:#016fd0;}</style></defs><g transform="translate(10 5)"><rect class="a" width="40" height="30" rx="4" transform="translate(-10 -5)"/><path class="b" d="M0,0H19.911V10.748l-.986,1.54.986,1.37v6.252H0V9.778L.616,9.07,0,8.392Z" transform="translate(0.02 0.02)"/><path class="a" d="M0,3.126V0H3.31l.355.463L4.032,0H16.045V2.91a1.387,1.387,0,0,1-.678.216H8.716l-.4-.493v.493H7V2.285a1.1,1.1,0,0,1-.567.117H5.99v.724H4l-.355-.473-.36.473Z" transform="translate(3.885 10.768)"/><path class="a" d="M0,1.74.746,0H2.037l.424.975V0h1.6l.252.7L4.562,0h7.2V.354a1.554,1.554,0,0,1,1-.354L15.1.008l.416.962V0h1.343l.37.553V0h1.355V3.126H17.231l-.354-.554v.554H14.9l-.2-.493h-.53l-.2.493H12.642a1.322,1.322,0,0,1-.878-.347v.347H9.747l-.4-.493v.493h-7.5l-.2-.493H1.119l-.2.493H0Z" transform="translate(0.02 6.672)"/><path class="b" d="M.655,2.342H0L1.007,0H1.77l1,2.34H2.106l-.185-.469H.842l-.186.469Zm.724-1.8-.329.819h.659Z" transform="translate(0.024 7.058)"/><path class="b" d="M0,2.341V0L.931,0l.542,1.509L2,0h.924V2.341H2.341V.616L1.72,2.341H1.207L.585.616V2.341Z" transform="translate(2.869 7.057)"/><path class="b" d="M0,2.341V0H1.909V.524H.591v.4H1.879v.493H.591v.416H1.909v.508Z" transform="translate(6.195 7.057)"/><path class="b" d="M.585,2.342H0V0H1.3A.76.76,0,0,1,2.12.76a.717.717,0,0,1-.642.719l.768.861-.714,0-.7-.832H.585v.832Zm0-1.818v.492h.678A.263.263,0,0,0,1.531.769.269.269,0,0,0,1.254.524Z" transform="translate(8.443 7.058)"/><path class="b" d="M.6,2.341H0V0H.6Z" transform="translate(10.802 7.057)"/><path class="b" d="M1.132,2.341H1A1.031,1.031,0,0,1,0,1.18,1.072,1.072,0,0,1,1.163,0h.647V.554h-.67a.563.563,0,0,0-.546.631.573.573,0,0,0,.631.644h.154Z" transform="translate(11.684 7.057)"/><path class="b" d="M.655,2.342H0L1.007,0H1.77l1,2.34H2.106l-.185-.469H.842l-.186.469Zm.724-1.8-.329.819h.659Z" transform="translate(13.083 7.058)"/><path class="b" d="M0,2.341V0H.744l.95,1.471V0h.585V2.341h-.72L.585.832V2.341Z" transform="translate(15.927 7.057)"/><path class="b" d="M0,2.341V0H1.909V.524H.591v.4H1.879v.493H.591v.416H1.909v.508Z" transform="translate(4.285 11.153)"/><path class="b" d="M0,2.341V0H1.909V.524H.591v.4H1.872v.493H.591v.416H1.909v.508Z" transform="translate(13.642 11.153)"/><path class="b" d="M.022,2.341l.93-1.156L0,0H.737L1.3.732,1.873,0h.708L1.642,1.17l.931,1.17H1.836l-.55-.721-.537.721Z" transform="translate(6.247 11.153)"/><path class="b" d="M.6,2.341H0V0H1.292a.772.772,0,0,1,.841.788.806.806,0,0,1-.916.814H.6V2.34ZM.6.529v.539h.647A.271.271,0,0,0,1.538.8a.265.265,0,0,0-.289-.27Z" transform="translate(8.89 11.154)"/><path class="b" d="M.585,2.342H0V0H1.3A.76.76,0,0,1,2.12.76a.717.717,0,0,1-.642.719l.768.861-.714,0-.7-.832H.585v.832Zm0-1.818v.492h.678A.263.263,0,0,0,1.531.769.269.269,0,0,0,1.254.524Z" transform="translate(11.276 11.153)"/><path class="b" d="M.074,2.341V1.832H1.245c.173,0,.248-.094.248-.2s-.075-.2-.248-.2H.716A.654.654,0,0,1,0,.737C0,.362.235,0,.918,0h1.14L1.811.527H.826C.637.527.579.625.579.72a.2.2,0,0,0,.216.2h.554a.642.642,0,0,1,.735.672.7.7,0,0,1-.763.745Z" transform="translate(15.748 11.153)"/><path class="b" d="M.074,2.341V1.832H1.245c.173,0,.248-.094.248-.2s-.075-.2-.248-.2H.716A.654.654,0,0,1,0,.737C0,.362.235,0,.918,0h1.14L1.811.527H.826C.637.527.579.625.579.72a.2.2,0,0,0,.216.2h.554a.642.642,0,0,1,.735.672.7.7,0,0,1-.763.745Z" transform="translate(17.895 11.153)"/></g></svg>