<svg xmlns="http://www.w3.org/2000/svg" width="40" height="30" viewBox="0 0 40 30"><defs><style>.a{fill:#fff;}.b{fill:#050013;stroke:#231f20;stroke-miterlimit:10;stroke-width:0.567px;}.c{fill:#009dd7;}.d{fill:#fff200;}.e{fill:#e33206;}</style></defs><g transform="translate(10 5)"><rect class="a" width="40" height="30" rx="4" transform="translate(-10 -5)"/><path class="b" d="M9.994,0A9.994,9.994,0,1,1,0,9.994,10,10,0,0,1,9.994,0Z"/><path class="a" d="M.516,4.774h0A3.043,3.043,0,0,1,0,3.072,3.071,3.071,0,0,1,6.057,2.35l-1.238.538-1.266.556L.516,4.773ZM3.072,1.306h0a1.761,1.761,0,0,0-1.759,1.76,1.364,1.364,0,0,0,.006.16L4.389,1.908a1.774,1.774,0,0,0-1.318-.6Z" transform="translate(2.63 7.318)"/><path class="a" d="M3.834.94A3.052,3.052,0,0,1,0,1.312L.722.212A1.786,1.786,0,0,0,2.911,0l.923.94Z" transform="translate(4.011 11.645)"/><path class="a" d="M.006,5.805,0,0H1.1V5.65a.119.119,0,0,0,.08.132l.957.372-.43,1.123L.585,6.8a.9.9,0,0,1-.579-1Z" transform="translate(9.089 6.017)"/><g transform="translate(11.333 7.333)"><path class="c" d="M1.938,3.655a1.675,1.675,0,0,1-.65-1.327,1.7,1.7,0,0,1,.523-1.222L1.128,0a2.966,2.966,0,0,0,.165,4.778Z" transform="translate(0.044 0.672)"/><path class="d" d="M.55,1.382a1.616,1.616,0,0,1,.567-.1,1.676,1.676,0,0,1,1.574,1.09L4,2.262A2.965,2.965,0,0,0,1.117,0,2.91,2.91,0,0,0,0,.22Z" transform="translate(1.894 0.033)"/><path class="e" d="M2.6,0A1.686,1.686,0,0,1,.919,1.6a1.619,1.619,0,0,1-.407-.05L0,2.741a3.013,3.013,0,0,0,.925.149A2.974,2.974,0,0,0,3.892.044Z" transform="translate(2.097 3.077)"/></g></g></svg>