<svg xmlns="http://www.w3.org/2000/svg" width="40" height="30" viewBox="0 0 40 30"><defs><style>.a{fill:#fff;}.b{fill:#ff5f00;}.c{fill:#eb001b;}.d{fill:#f79e1b;}</style></defs><g transform="translate(5 6)"><rect class="a" width="40" height="30" rx="4" transform="translate(-5 -6)"/><g transform="translate(0.077 0.078)"><rect class="b" width="8.036" height="14.634" transform="translate(10.88 2.029)"/><path class="c" d="M11.351,9.308a9.336,9.336,0,0,1,3.508-7.318,9.1,9.1,0,0,0-12.422,1,9.4,9.4,0,0,0,0,12.627,9.1,9.1,0,0,0,12.422,1,9.336,9.336,0,0,1-3.508-7.316Z" transform="translate(0.04 0.04)"/><path class="d" d="M14.86,9.309a9.318,9.318,0,0,1-5.17,8.37A9.085,9.085,0,0,1,0,16.624,9.352,9.352,0,0,0,3.509,9.307,9.352,9.352,0,0,0,0,1.99,9.085,9.085,0,0,1,9.689.936a9.318,9.318,0,0,1,5.17,8.37Z" transform="translate(14.898 0.039)"/><path class="d" d="M.719.5h0V.124L.62.446H.551L.452.124V.5H.385V0H.467L.574.355.681,0H.773V.5L.72.5ZM.184.5H.131V.086H0V0H.3V.086H.184V.5Z" transform="translate(28.696 14.75)"/></g></g></svg>