<svg xmlns="http://www.w3.org/2000/svg" width="40" height="30" viewBox="0 0 40 30"><defs><style>.a{fill:#fff;}</style></defs><g transform="translate(5 7)"><rect class="a" width="40" height="30" rx="4" transform="translate(-5 -7)"/><rect width="1.462" height="16.547" transform="translate(28.275 0.302)"/><rect width="1.425" height="16.547" transform="translate(25.462 0.302)"/><rect width="1.725" height="16.547" transform="translate(23.175 0.302)"/><rect width="0.863" height="16.547" transform="translate(21.188 0.302)"/><rect width="2.25" height="16.547" transform="translate(16.987 0.302)"/><rect width="1.575" height="16.547" transform="translate(14.137 0.302)"/><rect width="1.125" height="16.547" transform="translate(11.325 0.302)"/><rect width="2.25" height="16.547" transform="translate(8.512 0.302)"/><rect width="0.75" height="16.547" transform="translate(7.2 0.302)"/><rect width="0.637" height="16.547" transform="translate(4.463 0.302)"/><rect width="0.637" height="16.547" transform="translate(3.225 0.302)"/><rect width="0.637" height="16.547" transform="translate(19.875 0.302)"/><rect width="1.688" height="16.547" transform="translate(0 0.302)"/></g></svg>